<?xml version="1.0" encoding="utf-8"?>
<!-- Generator: Adobe Illustrator 22.0.1, SVG Export Plug-In . SVG Version: 6.00 Build 0)  -->
<svg version="1.1" id="Ebene_1" xmlns="http://www.w3.org/2000/svg" xmlns:xlink="http://www.w3.org/1999/xlink" x="0px" y="0px"
	 viewBox="0 0 179 179" style="enable-background:new 0 0 179 179;" xml:space="preserve">
<style type="text/css">
	.st0{fill:#4596FF;}
	.st1{fill:#FCFCFC;}
	.st2{enable-background:new    ;}
</style>
<title>logo3</title>
<g>
	<circle class="st0" cx="89.5" cy="89.5" r="89.5"/>
</g>
<g>
	<path class="st1" d="M132.6,20.3l-13.1,3.8L16.4,53.5c-4.2,1.2-6.6,5.6-5.4,9.8l25.7,89.9c1.2,4.2,5.6,6.6,9.8,5.4l103.1-29.4
		l13.1-3.7c4.2-1.2,6.6-5.6,5.4-9.8l-7.2-25.2l-1.3-4.4l-8.8-30.7l-1.3-4.4l-7.2-25.3C141.2,21.6,136.8,19.2,132.6,20.3z
		 M45.2,154.3c-1.8,0.5-3.6-0.5-4.2-2.3c0,0,0,0,0,0L15.3,62.1c-0.5-1.8,0.5-3.6,2.3-4.2l103.1-29.4c1.8-0.5,3.6,0.5,4.2,2.3
		l7.2,25.2l-2.2,0.6C119,59.8,112.7,71.1,115.8,82s14.5,17.2,25.3,14.1l2.2-0.6l7.2,25.2c0.5,1.8-0.5,3.6-2.3,4.2L45.2,154.3z
		 M163.7,117c0.5,1.8-0.5,3.6-2.3,4.2l-6.3,1.8c0,0,0-0.1,0-0.1c0-0.4,0.1-0.7,0.1-1.1c0-0.2,0-0.4,0-0.6c0-0.6-0.1-1.1-0.3-1.7
		l-7.2-25.2l8.8-2.5L163.7,117z M155.2,87.3l-8.7,2.5l-4.4,1.3l-2.2,0.6c-8.5,2.4-17.3-2.5-19.7-11s2.5-17.3,10.9-19.7l0,0l2.2-0.6
		l4.4-1.3l8.8-2.5L155.2,87.3z M136.4,54.8l-7.2-25.3c-0.2-0.5-0.4-1.1-0.6-1.6c-0.1-0.2-0.2-0.3-0.3-0.5c-0.2-0.3-0.4-0.6-0.6-0.9
		c0,0-0.1-0.1-0.1-0.1l6.3-1.8c1.8-0.5,3.6,0.5,4.1,2.3l7.2,25.3L136.4,54.8z"/>
</g>
<g>
	<path class="st1" d="M136.5,102.4c-0.6,1.1-0.2,2.5,0.9,3.1c0.5,0.3,1.2,0.4,1.7,0.2c0.6-0.2,1.1-0.6,1.4-1.1
		c0.3-0.5,0.3-1.2,0.2-1.7c-0.2-0.6-0.6-1.1-1.1-1.3C138.5,101,137.1,101.4,136.5,102.4z"/>
</g>
<g>
	<path class="st1" d="M140.1,109.2c-1.2,0.3-1.9,1.6-1.6,2.8c0,0,0,0,0,0c0.3,1.2,1.5,2,2.7,1.7c1.2-0.3,2-1.5,1.7-2.7
		c0-0.1,0-0.1-0.1-0.2C142.6,109.6,141.4,108.9,140.1,109.2C140.2,109.2,140.1,109.2,140.1,109.2z"/>
</g>
<g>
	<path class="st1" d="M141,118.1c-0.3,0.5-0.3,1.2-0.2,1.7c0.3,1.2,1.6,1.9,2.8,1.6c1.2-0.3,1.9-1.6,1.6-2.8c0,0,0,0,0-0.1
		c-0.3-1.2-1.6-1.9-2.8-1.6C141.8,117.2,141.3,117.6,141,118.1z"/>
</g>
<g>
	<circle class="st1" cx="90.4" cy="134.2" r="2.3"/>
</g>
<g>
	<circle class="st1" cx="81.7" cy="136.8" r="2.3"/>
</g>
<g>
	<circle class="st1" cx="99.2" cy="131.7" r="2.3"/>
</g>
<g>
	<circle class="st1" cx="64.1" cy="141.8" r="2.3"/>
</g>
<g>
	<circle class="st1" cx="55.4" cy="144.3" r="2.3"/>
</g>
<g>
	<circle class="st1" cx="72.9" cy="139.3" r="2.3"/>
</g>
<g>
	<circle class="st1" cx="125.5" cy="124.2" r="2.3"/>
</g>
<g>
	<circle class="st1" cx="107.9" cy="129.2" r="2.3"/>
</g>
<g>
	<circle class="st1" cx="134.2" cy="121.7" r="2.3"/>
</g>
<g>
	<circle class="st1" cx="116.7" cy="126.7" r="2.3"/>
</g>
<g>
	<path class="st1" d="M44.6,145.6c-0.3,0.5-0.3,1.2-0.2,1.7c0.2,0.6,0.6,1.1,1.1,1.4c1.1,0.6,2.5,0.2,3.1-0.9
		c0.3-0.5,0.3-1.1,0.2-1.7c-0.3-1.2-1.6-1.9-2.8-1.6C45.4,144.7,44.9,145.1,44.6,145.6L44.6,145.6z"/>
</g>
<g>
	<circle class="st1" cx="25.2" cy="71.8" r="2.3"/>
</g>
<g>
	<circle class="st1" cx="27.6" cy="80.2" r="2.3"/>
</g>
<g>
	<circle class="st1" cx="37.1" cy="113.5" r="2.3"/>
</g>
<g>
	<circle class="st1" cx="32.4" cy="96.8" r="2.3"/>
</g>
<g>
	<circle class="st1" cx="30" cy="88.5" r="2.3"/>
</g>
<g>
	<circle class="st1" cx="39.5" cy="121.8" r="2.3"/>
</g>
<g>
	<circle class="st1" cx="34.7" cy="105.1" r="2.3"/>
</g>
<g>
	<circle class="st1" cx="41.9" cy="130.1" r="2.3"/>
</g>
<g>
	<circle class="st1" cx="44.2" cy="138.4" r="2.3"/>
</g>
<g>
	<path class="st1" d="M20.9,62.4c-0.3,0.5-0.4,1.2-0.2,1.7c0.3,1.2,1.6,1.9,2.8,1.6c0,0,0,0,0,0c1.2-0.3,1.9-1.6,1.6-2.8
		c0,0,0,0,0-0.1c-0.2-0.6-0.6-1.1-1.1-1.4C22.9,60.9,21.5,61.3,20.9,62.4z"/>
</g>
<g>
	<circle class="st1" cx="101.7" cy="41" r="2.3"/>
</g>
<g>
	<circle class="st1" cx="110.5" cy="38.5" r="2.3"/>
</g>
<g>
	<circle class="st1" cx="75.4" cy="48.5" r="2.3"/>
</g>
<g>
	<circle class="st1" cx="84.2" cy="46" r="2.3"/>
</g>
<g>
	<circle class="st1" cx="66.7" cy="51" r="2.3"/>
</g>
<g>
	<circle class="st1" cx="92.9" cy="43.5" r="2.3"/>
</g>
<g>
	<circle class="st1" cx="49.1" cy="56" r="2.3"/>
</g>
<g>
	<circle class="st1" cx="40.4" cy="58.5" r="2.3"/>
</g>
<g>
	<circle class="st1" cx="31.6" cy="61" r="2.3"/>
</g>
<g>
	<circle class="st1" cx="57.9" cy="53.5" r="2.3"/>
</g>
<g>
	<path class="st1" d="M119.9,38.2c0.6-0.2,1.1-0.6,1.4-1.1c0.3-0.5,0.3-1.1,0.2-1.7c-0.2-0.6-0.6-1.1-1.1-1.4
		c-1.1-0.6-2.5-0.2-3.1,0.9c-0.3,0.5-0.4,1.2-0.2,1.8C117.4,37.8,118.7,38.5,119.9,38.2z"/>
</g>
<g>
	<path class="st1" d="M122.1,46c1.2-0.4,1.9-1.6,1.5-2.8c-0.4-1.2-1.6-1.9-2.8-1.5s-1.9,1.6-1.5,2.8c0,0,0,0,0,0
		C119.6,45.7,120.9,46.4,122.1,46C122.1,46,122.1,46,122.1,46z"/>
</g>
<g>
	<path class="st1" d="M124.4,53.9c1.2-0.4,1.9-1.6,1.6-2.8c-0.2-0.6-0.6-1.1-1.1-1.4c-1.1-0.6-2.5-0.2-3.1,0.9
		c-0.6,1.1-0.2,2.5,0.8,3.1c0,0,0,0,0,0C123.1,54,123.8,54.1,124.4,53.9z"/>
</g>
<g class="st2">
	<path class="st1" d="M140.6,83.9l-11.3,3.2l-0.5-1.6l4.1-8.4c0.6-1.3,1-2.3,1.1-3c0.2-0.7,0.1-1.4-0.1-2.1c-0.3-0.9-0.7-1.6-1.5-2
		c-0.7-0.4-1.5-0.5-2.4-0.2c-1.1,0.3-1.9,0.9-2.3,1.7c-0.4,0.8-0.5,1.7-0.2,2.9l-2.2,0.6c-0.5-1.6-0.3-3,0.4-4.3
		c0.7-1.3,2-2.2,3.7-2.7c1.6-0.5,3-0.4,4.2,0.2s2,1.6,2.4,3c0.5,1.7,0,4-1.5,7l-3.2,6.4l8.7-2.5L140.6,83.9z"/>
	<path class="st1" d="M150.2,81.1l-2.2,0.6l-4.2-14.7l-4,2.9l-0.6-2l5.6-4.2l0.3-0.1L150.2,81.1z"/>
</g>
<g class="st2">
	<path class="st1" d="M61.5,109.4l3.4,7.2l-0.1-7.4l1.4-43.8l7.1-2.1L96.9,100l3.7,6.4l-0.8-8.1l-1.1-42.2l8.5-2.5l0.6,62l-7.7,2.2
		l-25-38.1l-2.2-4.1l0.2,4.7l-1.9,45.9l-7.7,2.2l-31.7-53l8.5-2.4L61.5,109.4z"/>
</g>
</svg>
