<svg xmlns="http://www.w3.org/2000/svg" viewBox="0 0 504.12399 504.12399"><defs><style>.a{fill:#0a7fff;}.b{fill:#0d74d2;}.c{fill:#007aff;}.d{fill:#0570d1;}.e{fill:#268eff;}.f{fill:#d6d6d6;}.g{fill:#1283ff;}.h{fill:#b7b7b7;}.i{fill:#a0a0a0;}</style></defs><title>Zeichenfläche 1</title><path class="a" d="M15.754,133.909,252.062,252.063,488.37,133.909V385.971L252.062,504.123,15.754,385.969Z"/><path class="b" d="M15.754,157.538v73.649l235.52,115.397L488.369,230.793V157.538L252.062,273.33Z"/><path class="c" d="M252.062,504.123V252.063L31.508,141.786H15.754V385.971Z"/><path class="d" d="M15.754,157.538v73.649l235.52,115.397.788-.394V273.329Z"/><path class="e" d="M0,125.638,252.062.001,504.124,125.638V142.18L252.062,267.815,0,142.573Z"/><path class="f" d="M396.603,39.779c-8.271-14.966-25.994-24.025-46.868-24.025-47.655,0-81.132,44.505-97.674,72.862-16.542-28.357-50.412-72.468-97.674-72.468-30.326,0-51.988,18.511-51.988,43.717,0,44.898,49.231,74.043,148.086,74.043S401.722,96.493,401.722,60.259A41.58987,41.58987,0,0,0,396.603,39.779ZM164.628,88.223C153.6,80.74,149.662,72.469,149.662,66.955c0-6.695,6.302-11.815,15.36-11.815,21.268,0,38.203,27.963,47.655,47.262C187.865,100.432,173.292,93.736,164.628,88.223Zm174.867,0c-8.665,5.514-23.237,12.209-48.049,14.178,9.058-19.298,25.994-47.262,47.655-47.262,9.058,0,15.36,5.12,15.36,11.815C354.462,72.469,350.523,80.739,339.495,88.223Z"/><path class="g" d="M0,126.032,252.062,249.306,504.124,126.032v81.526L251.274,330.832,0,207.558Z"/><path class="f" d="M346.585,213.859v-9.058l-94.523-51.2-94.523,51.2v9.058L94.524,186.29V173.687L248.911,92.161l3.151,1.575,3.151-1.575L409.6,173.293v12.603Z"/><path class="h" d="M346.585,204.801V456.469L409.6,424.961V173.293Z"/><path class="i" d="M94.523,425.354l63.015,31.508V205.195L94.523,173.293Z"/></svg>