<svg xmlns="http://www.w3.org/2000/svg" viewBox="0 0 300 300"><defs><style>.a{fill:#efeeee;}.b{fill:#ababab;}.c{fill:#dededd;}.d{fill:#3fa9f5;}.e{fill:#fff;}</style></defs><title>csvExport</title><polygon class="a" points="63 18 63 264 206.5 264 268 202.5 268 18 63 18"/><polygon class="b" points="206.5 202.5 206.5 264 268 202.5 206.5 202.5"/><polygon class="c" points="145 264 206.5 264 206.5 202.5 145 264"/><path class="d" d="M22,79.5v71.75H186V79.5Z"/><path class="e" d="M63.205,101.353a4.246,4.246,0,0,0-4.15125-2.1935,4.09745,4.09745,0,0,0-2.73675.902,5.87563,5.87563,0,0,0-1.69125,2.88025,24.6553,24.6553,0,0,0-.861,5.23774c-.17425,2.1525-.246,4.78675-.246,7.90275a76.77552,76.77552,0,0,0,.33825,8.05651,17.5974,17.5974,0,0,0,1.0455,4.76625,4.283,4.283,0,0,0,1.7835,2.2755,5.14273,5.14273,0,0,0,2.49075.59449,5.90292,5.90292,0,0,0,2.18325-.39974,3.70157,3.70157,0,0,0,1.75275-1.599,9.94076,9.94076,0,0,0,1.1685-3.3825,30.85723,30.85723,0,0,0,.4305-5.75025H73.5575a39.73544,39.73544,0,0,1-.5535,6.765,15.50353,15.50353,0,0,1-2.06025,5.59649,10.3468,10.3468,0,0,1-4.2435,3.74125,16.059,16.059,0,0,1-7.10325,1.36325,16.78953,16.78953,0,0,1-7.92325-1.599,10.78824,10.78824,0,0,1-4.52025-4.6125,20.32539,20.32539,0,0,1-2.0295-7.19549,92.07107,92.07107,0,0,1,0-18.409,20.65265,20.65265,0,0,1,2.0295-7.22625,11.48475,11.48475,0,0,1,4.52025-4.70475A16.01246,16.01246,0,0,1,59.597,92.67124a15.28419,15.28419,0,0,1,7.47225,1.5375,10.35624,10.35624,0,0,1,4.0795,3.90525,13.53057,13.53057,0,0,1,1.69125,5.1045,41.99011,41.99011,0,0,1,.33825,5.13526H64.3325C64.3325,105.125,63.95325,102.79825,63.205,101.353Z"/><path class="e" d="M91.87425,124.9895a15.33137,15.33137,0,0,0,.246,2.788,5.01391,5.01391,0,0,0,.9225,2.12175,4.51011,4.51011,0,0,0,1.8245,1.36325,7.36509,7.36509,0,0,0,2.8495.492,5.63944,5.63944,0,0,0,3.65925-1.32225,5.00035,5.00035,0,0,0,1.62975-4.08975,7.58013,7.58013,0,0,0-.39975-2.55225,4.93108,4.93108,0,0,0-1.32225-1.927A9.46793,9.46793,0,0,0,98.8545,120.295a33.97144,33.97144,0,0,0-3.72075-1.44524,32.66141,32.66141,0,0,1-5.1045-2.16276,13.33594,13.33594,0,0,1-3.59775-2.73675,9.80041,9.80041,0,0,1-2.12175-3.6285,15.35039,15.35039,0,0,1-.6765-4.7765q0-6.519,3.6285-9.70675c2.40875-2.132,5.74-3.198,9.963-3.198a21.65385,21.65385,0,0,1,5.44275.64575,11.25566,11.25566,0,0,1,4.305,2.091,9.82608,9.82608,0,0,1,2.829,3.67975,13.16112,13.16112,0,0,1,1.01475,5.38125v1.23H102.3395a8.96843,8.96843,0,0,0-1.09675-4.838,4.09866,4.09866,0,0,0-3.69-1.69125,6.33559,6.33559,0,0,0-2.46.4305,4.22379,4.22379,0,0,0-1.56825,1.13775,4.01821,4.01821,0,0,0-.80975,1.65025,7.82553,7.82553,0,0,0-.21525,1.9065,6.31951,6.31951,0,0,0,.861,3.41326,7.58215,7.58215,0,0,0,3.69,2.55224l6.82649,2.952a20.02078,20.02078,0,0,1,4.11025,2.3165,11.0412,11.0412,0,0,1,2.55225,2.583,8.52558,8.52558,0,0,1,1.32224,3.04425,16.94454,16.94454,0,0,1,.369,3.67975q0,6.9495-4.02824,10.11676t-11.22375,3.1775q-7.503,0-10.742-3.2595-3.22875-3.2595-3.2185-9.348v-1.78349h8.856v1.28122Z"/><path class="e" d="M135.611,125.9735h.19475l6.519-32.472h9.17375l-10.086,43.911H130.035l-10.07575-43.911h9.471Z"/><path class="d" d="M150.85761,217.10527a1.8556,1.8556,0,0,0-1.711-1.14436h-20.291V169.66822a1.85248,1.85248,0,0,0-1.85177-1.85177H97.3764a1.85248,1.85248,0,0,0-1.85177,1.85177v46.29286H75.15585a1.85086,1.85086,0,0,0-1.311,3.15914L110.7865,256.1841a1.85516,1.85516,0,0,0,2.622.00364l37.04912-37.06387A1.84788,1.84788,0,0,0,150.85761,217.10527Z"/></svg>