<svg xmlns="http://www.w3.org/2000/svg" viewBox="0 0 300 300"><defs><style>.a{fill:#3fa9f5;}.b{fill:#fff;}</style></defs><title>exchange</title><path d="M79.3,92.59816V73.30376h65.1v18.6L187.80062,62.9696,144.4,34.03668V54.70376H60.7v37.8944a62.624,62.624,0,0,1,18.6,0Z"/><path d="M215.7,215.20936v19.2944H144.4V213.83669l-43.40062,28.93416L144.4,271.70376v-18.6h89.9v-37.8944a62.624,62.624,0,0,1-18.6,0Z"/><path class="a" d="M61.4657,137.43532a4.84286,4.84286,0,0,0,1.74778,3.942,15.5516,15.5516,0,0,0,5.23838,2.54572V131.64763Q61.4657,132.24468,61.4657,137.43532Z"/><path class="a" d="M67.35508,200.71376V189.03544a60.79564,60.79564,0,0,1-13.6245-2.7931,49.11277,49.11277,0,0,1-12.12658-5.7908l7.18581-14.2724a10.88062,10.88062,0,0,0,2.14643,1.64672,34.45165,34.45165,0,0,0,4.44107,2.39444,60.50421,60.50421,0,0,0,6.08778,2.39878,38.32689,38.32689,0,0,0,6.98677,1.6461V160.991l-4.79073-1.39934a59.31636,59.31636,0,0,1-8.48284-3.242,22.4018,22.4018,0,0,1-5.939-4.04116A14.69083,14.69083,0,0,1,45.745,147.018a19.49544,19.49544,0,0,1-1.14824-6.98864,22.50738,22.50738,0,0,1,1.798-9.23243,21.52135,21.52135,0,0,1,4.84035-6.93656,22.2045,22.2045,0,0,1,7.18642-4.539,33.49092,33.49092,0,0,1,8.93234-2.14768v-10.08H70v-15.19a62,62,0,0,0,0,124v-15.19H67.35508Z"/><path class="a" d="M80.82954,169.17436a4.6361,4.6361,0,0,0-2.09622-4.04178,23.15358,23.15358,0,0,0-5.58868-2.64554v11.97717Q80.8283,174.1666,80.82954,169.17436Z"/><path class="a" d="M132,153.90377a61.94967,61.94967,0,0,0-62-62v15.19h4.24266v10.07995a42.9521,42.9521,0,0,1,12.17556,2.8954,82.23742,82.23742,0,0,1,9.88156,4.68968L89.114,138.33494a7.78135,7.78135,0,0,0-1.74654-1.30138,36.73118,36.73118,0,0,0-3.69273-1.94493,53.11253,53.11253,0,0,0-4.99038-1.997,30.01973,30.01973,0,0,0-5.53908-1.3454v13.573l3.193.79918a85.12691,85.12691,0,0,1,9.18282,3.043,24.66472,24.66472,0,0,1,6.93656,4.09324,16.57274,16.57274,0,0,1,4.39084,5.93836,20.61486,20.61486,0,0,1,1.54752,8.38488,21.46009,21.46009,0,0,1-1.99516,9.67883,18.4661,18.4661,0,0,1-5.34006,6.53851,23.76137,23.76137,0,0,1-7.68552,3.84213,37.28543,37.28543,0,0,1-9.1326,1.49606v11.57912H70v15.19A61.99813,61.99813,0,0,0,132,153.90377Z"/><path class="b" d="M67.35508,117.17372a33.49055,33.49055,0,0,0-8.93234,2.14769,22.21112,22.21112,0,0,0-7.18642,4.539A21.53754,21.53754,0,0,0,46.396,130.797a22.49707,22.49707,0,0,0-1.798,9.23242,19.47692,19.47692,0,0,0,1.14825,6.98865,14.6773,14.6773,0,0,0,3.49431,5.29046,22.4116,22.4116,0,0,0,5.939,4.04116,59.28925,59.28925,0,0,0,8.48283,3.242L68.4531,160.991V174.2652a38.3512,38.3512,0,0,1-6.98678-1.6461,60.507,60.507,0,0,1-6.08778-2.39878,34.4528,34.4528,0,0,1-4.44106-2.39444,10.90553,10.90553,0,0,1-2.14644-1.64673l-7.1858,14.27241a49.1234,49.1234,0,0,0,12.12659,5.79079,60.78217,60.78217,0,0,0,13.62449,2.79311v11.67832h6.88634V189.13466a37.2903,37.2903,0,0,0,9.1326-1.49606,23.77377,23.77377,0,0,0,7.68552-3.84213,18.45967,18.45967,0,0,0,5.34006-6.53851,21.46833,21.46833,0,0,0,1.99516-9.67882,20.61075,20.61075,0,0,0-1.54752-8.38488,16.57274,16.57274,0,0,0-4.39084-5.93836,24.67077,24.67077,0,0,0-6.93656-4.09325,84.94739,84.94739,0,0,0-9.18282-3.043l-3.193-.79918v-13.573a30.0326,30.0326,0,0,1,5.53908,1.3454,52.94843,52.94843,0,0,1,4.99038,1.997,36.72786,36.72786,0,0,1,3.69272,1.94493A7.76569,7.76569,0,0,1,89.114,138.3362l7.18579-13.57614a82.0951,82.0951,0,0,0-9.88156-4.68968,42.97274,42.97274,0,0,0-12.17556-2.8954v-10.08H67.35508Zm5.78956,45.31394a23.15339,23.15339,0,0,1,5.58868,2.64554,4.63607,4.63607,0,0,1,2.09622,4.04178q0,4.98945-7.68428,5.29046V162.48766Zm-4.69216-18.564a15.57494,15.57494,0,0,1-5.23838-2.54572,4.84454,4.84454,0,0,1-1.74778-3.942q0-5.18846,6.98678-5.78707v12.27476Z"/><path class="a" d="M217.59287,171.54277A16.20254,16.20254,0,0,0,225,173.95766v-9.10842H211.25026A18.80864,18.80864,0,0,0,217.59287,171.54277Z"/><path class="a" d="M208.05354,152.56394q0,.99975.04959,1.89906c.03347.5983.08308,1.19909.15,1.79676H225V151.4653H208.05354Z"/><path class="a" d="M209.85153,142.8752H225V131.33763a15.51352,15.51352,0,0,0-9.05448,3.29591A20.46276,20.46276,0,0,0,209.85153,142.8752Z"/><path class="a" d="M225,188.5971a31.19923,31.19923,0,0,1-9.70424-1.87054,34.80846,34.80846,0,0,1-9.28947-5.09455,36.476,36.476,0,0,1-7.29243-7.54168,38.13809,38.13809,0,0,1-4.94388-9.24048h-9.98882l3.39574-8.5901h4.39579q-.10044-1.09738-.14941-2.14768c-.03472-.69874-.05022-1.41423-.05022-2.14706v-.50034h-6.89254l3.39636-8.58949h4.6934a36.98915,36.98915,0,0,1,4.34621-9.93922,34.1142,34.1142,0,0,1,7.29243-8.34086,34.91515,34.91515,0,0,1,20.7917-7.84424V91.90374a62,62,0,1,0,0,124V188.5971Z"/><path class="a" d="M287,153.90377a61.99919,61.99919,0,0,0-62-62v24.84712c.63674-.02914,1.2803-.04712,1.93192-.04712a33.7239,33.7239,0,0,1,17.33148,4.29535,27.7914,27.7914,0,0,1,10.938,11.18729l-12.586,8.79159a14.64,14.64,0,0,0-3.0473-4.645,16.61437,16.61437,0,0,0-8.53989-4.59544,23.46225,23.46225,0,0,0-4.49438-.4495c-.52328,0-1.03354.01736-1.53388.05021v11.537h7.02707l-3.39761,8.58948H225v4.79447h4.03062l-3.397,8.59009H225v9.10843c.56668.04836,1.14142.08183,1.73228.08183a19.92505,19.92505,0,0,0,4.54522-.54931,18.36555,18.36555,0,0,0,4.49562-1.69756,16.00367,16.00367,0,0,0,3.94507-2.99708,14.02451,14.02451,0,0,0,2.89726-4.5446L256,172.14292a20.87337,20.87337,0,0,1-4.74424,6.99112,29.30122,29.30122,0,0,1-7.24222,5.19435,39.7722,39.7722,0,0,1-17.68054,4.29474c-.44826,0-.89156-.01116-1.333-.02666v27.30666a61.9496,61.9496,0,0,0,62-61.99936Z"/><path class="b" d="M204.2083,124.59513a34.12525,34.12525,0,0,0-7.29244,8.34086,36.98881,36.98881,0,0,0-4.3462,9.93922h-4.69341l-3.39636,8.58948h6.89255v.50035c0,.73284.01549,1.44832.05021,2.14706q.04836,1.05.14942,2.14768h-4.3958l-3.39573,8.5901h9.98881a38.12675,38.12675,0,0,0,4.94388,9.24047,36.46113,36.46113,0,0,0,7.29244,7.54168,34.80911,34.80911,0,0,0,9.28946,5.09455,31.18151,31.18151,0,0,0,9.70425,1.87054c.44144.01549.88536.02666,1.333.02666a39.77212,39.77212,0,0,0,17.68054-4.29474,29.31269,29.31269,0,0,0,7.24222-5.19436,20.86146,20.86146,0,0,0,4.74425-6.99112l-13.38457-7.89136a14.02451,14.02451,0,0,1-2.89726,4.5446,16.02583,16.02583,0,0,1-3.94507,2.99708,18.3672,18.3672,0,0,1-4.49562,1.69757,19.924,19.924,0,0,1-4.54522.54931c-.59086,0-1.1656-.03347-1.73228-.08183a16.20738,16.20738,0,0,1-7.40714-2.41491,18.81212,18.81212,0,0,1-6.342-6.69352h14.3834l3.397-8.5901H208.25319c-.067-.59768-.11655-1.19908-.15-1.79675-.03348-.60016-.0496-1.23194-.0496-1.89907v-1.09925h20.57593l3.39761-8.58949H209.85153a20.45485,20.45485,0,0,1,6.09336-8.241,15.50944,15.50944,0,0,1,9.05449-3.29592c.50034-.03285,1.0106-.05021,1.53388-.05021a23.41257,23.41257,0,0,1,4.49437.4495,16.61426,16.61426,0,0,1,8.53989,4.59544,14.64019,14.64019,0,0,1,3.04731,4.645l12.586-8.7916a27.7874,27.7874,0,0,0-10.938-11.18728,33.73149,33.73149,0,0,0-17.33149-4.29536c-.65224,0-1.29517.018-1.93191.04712a34.91626,34.91626,0,0,0-20.79108,7.84358Z"/></svg>