<?xml version="1.0" encoding="iso-8859-1"?>
<!-- Generator: Adobe Illustrator 19.0.0, SVG Export Plug-In . SVG Version: 6.00 Build 0)  -->
<svg version="1.1" id="Capa_1" xmlns="http://www.w3.org/2000/svg" xmlns:xlink="http://www.w3.org/1999/xlink" x="0px" y="0px"
	 viewBox="0 0 512.003 512.003" style="enable-background:new 0 0 512.003 512.003;" xml:space="preserve">
<g>
	<g>
		<path d="M511.894,224.153C493.837,75.538,339.868-33.946,180.825,9.693c-48.372,13.272-93.964,46.671-128.38,94.043
			C19.115,149.613,0,204.677,0,254.809l0.001,71.836c0,17.602,10.354,33.683,26.379,40.967c0.15,0.068,0.302,0.134,0.455,0.198
			l331.281,137.56c44.213,18.335,95.411-2.529,113.646-48.418c1.729-4.351,3.491-9.182,5.256-14.211l13.277,6.638
			c2.117,1.059,4.415,1.583,6.707,1.583c2.743,0,5.479-0.751,7.887-2.24c4.423-2.733,7.114-7.561,7.114-12.76v-210
			C512.003,225.674,511.919,224.364,511.894,224.153z M443.881,445.872c-11.935,30.034-45.329,43.789-74.269,31.787L38.607,340.214
			c-5.235-2.467-8.606-7.771-8.606-13.569L30,254.808c0-93.571,72.704-192.572,158.764-216.185
			c131.994-36.217,263.467,47.101,290.09,169.954l-186.272-23.284c-26.802-3.352-50.581,17.56-50.581,44.652v67.476
			c0,17.155,9.532,32.577,24.875,40.249l183.082,91.541C447.884,435.221,445.828,440.973,443.881,445.872z M302.001,216.704v104.987
			l-21.708-10.853c-5.115-2.557-8.292-7.698-8.292-13.416v-67.476c0-9.138,8.002-15.993,16.86-14.884L302.001,216.704z
			 M482.001,411.692l-150-75V220.454l150,18.75V411.692z"/>
	</g>
</g>
<g>
	<g>
		<path d="M120.001,210.962c-33.084,0-60,26.916-60,60c0,33.084,26.916,60,60,60c33.084,0,60-26.916,60-60
			C180.001,237.878,153.085,210.962,120.001,210.962z M120.001,300.962c-16.542,0-30-13.458-30-30s13.458-30,30-30
			c16.542,0,30,13.458,30,30S136.543,300.962,120.001,300.962z"/>
	</g>
</g>
<g>
</g>
<g>
</g>
<g>
</g>
<g>
</g>
<g>
</g>
<g>
</g>
<g>
</g>
<g>
</g>
<g>
</g>
<g>
</g>
<g>
</g>
<g>
</g>
<g>
</g>
<g>
</g>
<g>
</g>
</svg>
